<mxfile host="app.diagrams.net" modified="2021-09-13T13:39:15.004Z" agent="5.0 (Windows NT 10.0; Win64; x64) AppleWebKit/537.36 (KHTML, like Gecko) Chrome/93.0.4577.63 Safari/537.36" etag="4MNLuLcEBvDkDduuQQAg" version="15.2.1" type="github">
  <diagram id="cSbxueVS2_pP46vZzvNk" name="Page-1">
    <mxGraphModel dx="744" dy="665" grid="1" gridSize="10" guides="1" tooltips="1" connect="1" arrows="1" fold="1" page="1" pageScale="1" pageWidth="827" pageHeight="1169" math="0" shadow="0">
      <root>
        <mxCell id="0" />
        <mxCell id="1" parent="0" />
        <mxCell id="s4ftjdQKB5c-E1wRGTuP-1" value="A" style="ellipse;whiteSpace=wrap;html=1;aspect=fixed;" vertex="1" parent="1">
          <mxGeometry x="40" y="40" width="50" height="50" as="geometry" />
        </mxCell>
        <mxCell id="s4ftjdQKB5c-E1wRGTuP-2" value="B" style="ellipse;whiteSpace=wrap;html=1;aspect=fixed;" vertex="1" parent="1">
          <mxGeometry x="190" y="20" width="50" height="50" as="geometry" />
        </mxCell>
        <mxCell id="s4ftjdQKB5c-E1wRGTuP-3" value="C" style="ellipse;whiteSpace=wrap;html=1;aspect=fixed;" vertex="1" parent="1">
          <mxGeometry x="280" y="150" width="50" height="50" as="geometry" />
        </mxCell>
        <mxCell id="s4ftjdQKB5c-E1wRGTuP-4" value="D" style="ellipse;whiteSpace=wrap;html=1;aspect=fixed;" vertex="1" parent="1">
          <mxGeometry x="440" y="160" width="50" height="50" as="geometry" />
        </mxCell>
        <mxCell id="s4ftjdQKB5c-E1wRGTuP-5" value="E" style="ellipse;whiteSpace=wrap;html=1;aspect=fixed;" vertex="1" parent="1">
          <mxGeometry x="120" y="150" width="50" height="50" as="geometry" />
        </mxCell>
        <mxCell id="s4ftjdQKB5c-E1wRGTuP-6" value="G" style="ellipse;whiteSpace=wrap;html=1;aspect=fixed;" vertex="1" parent="1">
          <mxGeometry x="430" y="270" width="50" height="50" as="geometry" />
        </mxCell>
        <mxCell id="s4ftjdQKB5c-E1wRGTuP-7" value="H" style="ellipse;whiteSpace=wrap;html=1;aspect=fixed;" vertex="1" parent="1">
          <mxGeometry x="580" y="160" width="50" height="50" as="geometry" />
        </mxCell>
        <mxCell id="s4ftjdQKB5c-E1wRGTuP-10" value="" style="endArrow=classic;html=1;exitX=1;exitY=1;exitDx=0;exitDy=0;entryX=0;entryY=0;entryDx=0;entryDy=0;" edge="1" parent="1" source="s4ftjdQKB5c-E1wRGTuP-2" target="s4ftjdQKB5c-E1wRGTuP-3">
          <mxGeometry width="50" height="50" relative="1" as="geometry">
            <mxPoint x="240" y="150" as="sourcePoint" />
            <mxPoint x="290" y="150" as="targetPoint" />
          </mxGeometry>
        </mxCell>
        <mxCell id="s4ftjdQKB5c-E1wRGTuP-11" value="" style="endArrow=classic;html=1;entryX=-0.024;entryY=0.316;entryDx=0;entryDy=0;exitX=0.736;exitY=1.028;exitDx=0;exitDy=0;entryPerimeter=0;exitPerimeter=0;" edge="1" parent="1" source="s4ftjdQKB5c-E1wRGTuP-1" target="s4ftjdQKB5c-E1wRGTuP-5">
          <mxGeometry width="50" height="50" relative="1" as="geometry">
            <mxPoint x="60" y="220" as="sourcePoint" />
            <mxPoint x="110" y="170" as="targetPoint" />
          </mxGeometry>
        </mxCell>
        <mxCell id="s4ftjdQKB5c-E1wRGTuP-12" value="" style="endArrow=classic;html=1;exitX=1;exitY=0.676;exitDx=0;exitDy=0;entryX=0;entryY=0.5;entryDx=0;entryDy=0;exitPerimeter=0;" edge="1" parent="1" source="s4ftjdQKB5c-E1wRGTuP-3" target="s4ftjdQKB5c-E1wRGTuP-4">
          <mxGeometry width="50" height="50" relative="1" as="geometry">
            <mxPoint x="350" y="210" as="sourcePoint" />
            <mxPoint x="400" y="160" as="targetPoint" />
            <Array as="points">
              <mxPoint x="390" y="185" />
            </Array>
          </mxGeometry>
        </mxCell>
        <mxCell id="s4ftjdQKB5c-E1wRGTuP-13" value="" style="endArrow=classic;html=1;exitX=1;exitY=0.5;exitDx=0;exitDy=0;" edge="1" parent="1" source="s4ftjdQKB5c-E1wRGTuP-4">
          <mxGeometry width="50" height="50" relative="1" as="geometry">
            <mxPoint x="510" y="210" as="sourcePoint" />
            <mxPoint x="580" y="185" as="targetPoint" />
          </mxGeometry>
        </mxCell>
        <mxCell id="s4ftjdQKB5c-E1wRGTuP-14" value="" style="endArrow=classic;html=1;entryX=0;entryY=0;entryDx=0;entryDy=0;" edge="1" parent="1" target="s4ftjdQKB5c-E1wRGTuP-6">
          <mxGeometry width="50" height="50" relative="1" as="geometry">
            <mxPoint x="310" y="200" as="sourcePoint" />
            <mxPoint x="490" y="210" as="targetPoint" />
          </mxGeometry>
        </mxCell>
        <mxCell id="s4ftjdQKB5c-E1wRGTuP-15" value="12" style="text;html=1;strokeColor=none;fillColor=none;align=center;verticalAlign=middle;whiteSpace=wrap;rounded=0;rotation=60;" vertex="1" parent="1">
          <mxGeometry x="70" y="120" width="40" height="20" as="geometry" />
        </mxCell>
        <mxCell id="s4ftjdQKB5c-E1wRGTuP-16" value="S,I,U" style="text;html=1;strokeColor=none;fillColor=none;align=center;verticalAlign=middle;whiteSpace=wrap;rounded=0;rotation=60;" vertex="1" parent="1">
          <mxGeometry x="90" y="110" width="40" height="20" as="geometry" />
        </mxCell>
        <mxCell id="s4ftjdQKB5c-E1wRGTuP-17" value="S,I,D" style="text;html=1;strokeColor=none;fillColor=none;align=center;verticalAlign=middle;whiteSpace=wrap;rounded=0;rotation=60;" vertex="1" parent="1">
          <mxGeometry x="260" y="100" width="40" height="20" as="geometry" />
        </mxCell>
        <mxCell id="s4ftjdQKB5c-E1wRGTuP-18" value="S,U" style="text;html=1;strokeColor=none;fillColor=none;align=center;verticalAlign=middle;whiteSpace=wrap;rounded=0;" vertex="1" parent="1">
          <mxGeometry x="360" y="160" width="40" height="20" as="geometry" />
        </mxCell>
        <mxCell id="s4ftjdQKB5c-E1wRGTuP-19" value="16" style="text;html=1;strokeColor=none;fillColor=none;align=center;verticalAlign=middle;whiteSpace=wrap;rounded=0;" vertex="1" parent="1">
          <mxGeometry x="360" y="190" width="40" height="20" as="geometry" />
        </mxCell>
        <mxCell id="s4ftjdQKB5c-E1wRGTuP-20" value="U" style="text;html=1;strokeColor=none;fillColor=none;align=center;verticalAlign=middle;whiteSpace=wrap;rounded=0;" vertex="1" parent="1">
          <mxGeometry x="520" y="160" width="40" height="20" as="geometry" />
        </mxCell>
        <mxCell id="s4ftjdQKB5c-E1wRGTuP-21" value="20" style="text;html=1;strokeColor=none;fillColor=none;align=center;verticalAlign=middle;whiteSpace=wrap;rounded=0;" vertex="1" parent="1">
          <mxGeometry x="520" y="190" width="40" height="20" as="geometry" />
        </mxCell>
        <mxCell id="s4ftjdQKB5c-E1wRGTuP-22" value="17" style="text;html=1;strokeColor=none;fillColor=none;align=center;verticalAlign=middle;whiteSpace=wrap;rounded=0;rotation=60;" vertex="1" parent="1">
          <mxGeometry x="230" y="110" width="40" height="20" as="geometry" />
        </mxCell>
        <mxCell id="s4ftjdQKB5c-E1wRGTuP-23" value="S,I,U" style="text;html=1;strokeColor=none;fillColor=none;align=center;verticalAlign=middle;whiteSpace=wrap;rounded=0;rotation=0;" vertex="1" parent="1">
          <mxGeometry x="120" y="40" width="40" height="20" as="geometry" />
        </mxCell>
        <mxCell id="s4ftjdQKB5c-E1wRGTuP-24" value="10" style="text;html=1;strokeColor=none;fillColor=none;align=center;verticalAlign=middle;whiteSpace=wrap;rounded=0;rotation=0;" vertex="1" parent="1">
          <mxGeometry x="125" y="60" width="40" height="20" as="geometry" />
        </mxCell>
        <mxCell id="s4ftjdQKB5c-E1wRGTuP-25" value="S,U,D" style="text;html=1;strokeColor=none;fillColor=none;align=center;verticalAlign=middle;whiteSpace=wrap;rounded=0;rotation=30;" vertex="1" parent="1">
          <mxGeometry x="380" y="230" width="40" height="20" as="geometry" />
        </mxCell>
        <mxCell id="s4ftjdQKB5c-E1wRGTuP-26" value="22" style="text;html=1;strokeColor=none;fillColor=none;align=center;verticalAlign=middle;whiteSpace=wrap;rounded=0;rotation=30;" vertex="1" parent="1">
          <mxGeometry x="360" y="250" width="40" height="20" as="geometry" />
        </mxCell>
        <mxCell id="s4ftjdQKB5c-E1wRGTuP-100" value="" style="endArrow=classic;html=1;exitX=1;exitY=0.5;exitDx=0;exitDy=0;" edge="1" parent="1" source="s4ftjdQKB5c-E1wRGTuP-5">
          <mxGeometry width="50" height="50" relative="1" as="geometry">
            <mxPoint x="200" y="220" as="sourcePoint" />
            <mxPoint x="279" y="175" as="targetPoint" />
          </mxGeometry>
        </mxCell>
        <mxCell id="s4ftjdQKB5c-E1wRGTuP-102" value="" style="endArrow=classic;html=1;exitX=-0.032;exitY=0.7;exitDx=0;exitDy=0;exitPerimeter=0;entryX=1;entryY=0.5;entryDx=0;entryDy=0;" edge="1" parent="1" source="s4ftjdQKB5c-E1wRGTuP-2" target="s4ftjdQKB5c-E1wRGTuP-1">
          <mxGeometry width="50" height="50" relative="1" as="geometry">
            <mxPoint x="120" y="70" as="sourcePoint" />
            <mxPoint x="170" y="20" as="targetPoint" />
          </mxGeometry>
        </mxCell>
        <mxCell id="s4ftjdQKB5c-E1wRGTuP-103" value="S,I,U" style="text;html=1;strokeColor=none;fillColor=none;align=center;verticalAlign=middle;whiteSpace=wrap;rounded=0;rotation=0;" vertex="1" parent="1">
          <mxGeometry x="195" y="150" width="40" height="20" as="geometry" />
        </mxCell>
        <mxCell id="s4ftjdQKB5c-E1wRGTuP-104" value="15" style="text;html=1;strokeColor=none;fillColor=none;align=center;verticalAlign=middle;whiteSpace=wrap;rounded=0;rotation=0;" vertex="1" parent="1">
          <mxGeometry x="195" y="180" width="40" height="20" as="geometry" />
        </mxCell>
        <mxCell id="s4ftjdQKB5c-E1wRGTuP-105" value="A" style="ellipse;whiteSpace=wrap;html=1;aspect=fixed;" vertex="1" parent="1">
          <mxGeometry x="30" y="280" width="50" height="50" as="geometry" />
        </mxCell>
        <mxCell id="s4ftjdQKB5c-E1wRGTuP-106" value="B" style="ellipse;whiteSpace=wrap;html=1;aspect=fixed;" vertex="1" parent="1">
          <mxGeometry x="180" y="260" width="50" height="50" as="geometry" />
        </mxCell>
        <mxCell id="s4ftjdQKB5c-E1wRGTuP-107" value="C" style="ellipse;whiteSpace=wrap;html=1;aspect=fixed;" vertex="1" parent="1">
          <mxGeometry x="310" y="345" width="50" height="50" as="geometry" />
        </mxCell>
        <mxCell id="s4ftjdQKB5c-E1wRGTuP-109" value="E" style="ellipse;whiteSpace=wrap;html=1;aspect=fixed;" vertex="1" parent="1">
          <mxGeometry x="110" y="390" width="50" height="50" as="geometry" />
        </mxCell>
        <mxCell id="s4ftjdQKB5c-E1wRGTuP-110" value="G" style="ellipse;whiteSpace=wrap;html=1;aspect=fixed;" vertex="1" parent="1">
          <mxGeometry x="480" y="400" width="50" height="50" as="geometry" />
        </mxCell>
        <mxCell id="s4ftjdQKB5c-E1wRGTuP-112" value="" style="endArrow=classic;html=1;exitX=1;exitY=1;exitDx=0;exitDy=0;entryX=0;entryY=0;entryDx=0;entryDy=0;" edge="1" parent="1" source="s4ftjdQKB5c-E1wRGTuP-106" target="s4ftjdQKB5c-E1wRGTuP-107">
          <mxGeometry width="50" height="50" relative="1" as="geometry">
            <mxPoint x="230" y="390" as="sourcePoint" />
            <mxPoint x="280" y="390" as="targetPoint" />
          </mxGeometry>
        </mxCell>
        <mxCell id="s4ftjdQKB5c-E1wRGTuP-113" value="" style="endArrow=classic;html=1;entryX=-0.024;entryY=0.316;entryDx=0;entryDy=0;exitX=0.736;exitY=1.028;exitDx=0;exitDy=0;entryPerimeter=0;exitPerimeter=0;" edge="1" parent="1" source="s4ftjdQKB5c-E1wRGTuP-105" target="s4ftjdQKB5c-E1wRGTuP-109">
          <mxGeometry width="50" height="50" relative="1" as="geometry">
            <mxPoint x="50" y="460" as="sourcePoint" />
            <mxPoint x="100" y="410" as="targetPoint" />
          </mxGeometry>
        </mxCell>
        <mxCell id="s4ftjdQKB5c-E1wRGTuP-116" value="" style="endArrow=classic;html=1;exitX=1.008;exitY=0.644;exitDx=0;exitDy=0;exitPerimeter=0;" edge="1" parent="1" source="s4ftjdQKB5c-E1wRGTuP-109">
          <mxGeometry width="50" height="50" relative="1" as="geometry">
            <mxPoint x="280" y="517" as="sourcePoint" />
            <mxPoint x="480" y="440" as="targetPoint" />
          </mxGeometry>
        </mxCell>
        <mxCell id="s4ftjdQKB5c-E1wRGTuP-117" value="12" style="text;html=1;strokeColor=none;fillColor=none;align=center;verticalAlign=middle;whiteSpace=wrap;rounded=0;rotation=60;" vertex="1" parent="1">
          <mxGeometry x="60" y="360" width="40" height="20" as="geometry" />
        </mxCell>
        <mxCell id="s4ftjdQKB5c-E1wRGTuP-118" value="S,I,U" style="text;html=1;strokeColor=none;fillColor=none;align=center;verticalAlign=middle;whiteSpace=wrap;rounded=0;rotation=60;" vertex="1" parent="1">
          <mxGeometry x="80" y="350" width="40" height="20" as="geometry" />
        </mxCell>
        <mxCell id="s4ftjdQKB5c-E1wRGTuP-119" value="S,I,D" style="text;html=1;strokeColor=none;fillColor=none;align=center;verticalAlign=middle;whiteSpace=wrap;rounded=0;rotation=30;" vertex="1" parent="1">
          <mxGeometry x="255" y="310" width="40" height="20" as="geometry" />
        </mxCell>
        <mxCell id="s4ftjdQKB5c-E1wRGTuP-124" value="17" style="text;html=1;strokeColor=none;fillColor=none;align=center;verticalAlign=middle;whiteSpace=wrap;rounded=0;rotation=30;" vertex="1" parent="1">
          <mxGeometry x="240" y="330" width="40" height="20" as="geometry" />
        </mxCell>
        <mxCell id="s4ftjdQKB5c-E1wRGTuP-125" value="S,I,U" style="text;html=1;strokeColor=none;fillColor=none;align=center;verticalAlign=middle;whiteSpace=wrap;rounded=0;rotation=0;" vertex="1" parent="1">
          <mxGeometry x="110" y="280" width="40" height="20" as="geometry" />
        </mxCell>
        <mxCell id="s4ftjdQKB5c-E1wRGTuP-126" value="10" style="text;html=1;strokeColor=none;fillColor=none;align=center;verticalAlign=middle;whiteSpace=wrap;rounded=0;rotation=0;" vertex="1" parent="1">
          <mxGeometry x="115" y="300" width="40" height="20" as="geometry" />
        </mxCell>
        <mxCell id="s4ftjdQKB5c-E1wRGTuP-127" value="&amp;nbsp;D" style="text;html=1;strokeColor=none;fillColor=none;align=center;verticalAlign=middle;whiteSpace=wrap;rounded=0;rotation=20;" vertex="1" parent="1">
          <mxGeometry x="400" y="380" width="40" height="20" as="geometry" />
        </mxCell>
        <mxCell id="s4ftjdQKB5c-E1wRGTuP-128" value="22" style="text;html=1;strokeColor=none;fillColor=none;align=center;verticalAlign=middle;whiteSpace=wrap;rounded=0;rotation=15;" vertex="1" parent="1">
          <mxGeometry x="394" y="400" width="40" height="20" as="geometry" />
        </mxCell>
        <mxCell id="s4ftjdQKB5c-E1wRGTuP-130" value="" style="endArrow=classic;html=1;exitX=-0.032;exitY=0.7;exitDx=0;exitDy=0;exitPerimeter=0;entryX=1;entryY=0.5;entryDx=0;entryDy=0;" edge="1" parent="1" source="s4ftjdQKB5c-E1wRGTuP-106" target="s4ftjdQKB5c-E1wRGTuP-105">
          <mxGeometry width="50" height="50" relative="1" as="geometry">
            <mxPoint x="110" y="310" as="sourcePoint" />
            <mxPoint x="160" y="260" as="targetPoint" />
          </mxGeometry>
        </mxCell>
        <mxCell id="s4ftjdQKB5c-E1wRGTuP-133" value="" style="endArrow=classic;html=1;" edge="1" parent="1" target="s4ftjdQKB5c-E1wRGTuP-110">
          <mxGeometry width="50" height="50" relative="1" as="geometry">
            <mxPoint x="363" y="380" as="sourcePoint" />
            <mxPoint x="430" y="510" as="targetPoint" />
          </mxGeometry>
        </mxCell>
        <mxCell id="s4ftjdQKB5c-E1wRGTuP-134" value="" style="shape=link;html=1;" edge="1" parent="1">
          <mxGeometry width="100" relative="1" as="geometry">
            <mxPoint x="190" y="150" as="sourcePoint" />
            <mxPoint x="240" y="200" as="targetPoint" />
          </mxGeometry>
        </mxCell>
        <mxCell id="s4ftjdQKB5c-E1wRGTuP-136" style="edgeStyle=orthogonalEdgeStyle;rounded=0;orthogonalLoop=1;jettySize=auto;html=1;exitX=0.25;exitY=0;exitDx=0;exitDy=0;entryX=0;entryY=0.5;entryDx=0;entryDy=0;" edge="1" parent="1" source="s4ftjdQKB5c-E1wRGTuP-104" target="s4ftjdQKB5c-E1wRGTuP-104">
          <mxGeometry relative="1" as="geometry" />
        </mxCell>
        <mxCell id="s4ftjdQKB5c-E1wRGTuP-137" value="" style="shape=link;html=1;exitX=1;exitY=0;exitDx=0;exitDy=0;" edge="1" parent="1" source="s4ftjdQKB5c-E1wRGTuP-103">
          <mxGeometry width="100" relative="1" as="geometry">
            <mxPoint x="190" y="169" as="sourcePoint" />
            <mxPoint x="190" y="200" as="targetPoint" />
          </mxGeometry>
        </mxCell>
        <mxCell id="s4ftjdQKB5c-E1wRGTuP-138" value="D" style="ellipse;whiteSpace=wrap;html=1;aspect=fixed;" vertex="1" parent="1">
          <mxGeometry x="255" y="470" width="50" height="50" as="geometry" />
        </mxCell>
        <mxCell id="s4ftjdQKB5c-E1wRGTuP-139" value="H" style="ellipse;whiteSpace=wrap;html=1;aspect=fixed;" vertex="1" parent="1">
          <mxGeometry x="475" y="480" width="50" height="50" as="geometry" />
        </mxCell>
        <mxCell id="s4ftjdQKB5c-E1wRGTuP-140" value="" style="endArrow=classic;html=1;exitX=1;exitY=0.66;exitDx=0;exitDy=0;exitPerimeter=0;" edge="1" parent="1" source="s4ftjdQKB5c-E1wRGTuP-138">
          <mxGeometry width="50" height="50" relative="1" as="geometry">
            <mxPoint x="385" y="505" as="sourcePoint" />
            <mxPoint x="475" y="505" as="targetPoint" />
          </mxGeometry>
        </mxCell>
        <mxCell id="s4ftjdQKB5c-E1wRGTuP-141" value="U" style="text;html=1;strokeColor=none;fillColor=none;align=center;verticalAlign=middle;whiteSpace=wrap;rounded=0;" vertex="1" parent="1">
          <mxGeometry x="330" y="480" width="40" height="20" as="geometry" />
        </mxCell>
        <mxCell id="s4ftjdQKB5c-E1wRGTuP-142" value="20" style="text;html=1;strokeColor=none;fillColor=none;align=center;verticalAlign=middle;whiteSpace=wrap;rounded=0;" vertex="1" parent="1">
          <mxGeometry x="330" y="510" width="40" height="20" as="geometry" />
        </mxCell>
        <mxCell id="s4ftjdQKB5c-E1wRGTuP-144" value="" style="endArrow=classic;html=1;entryX=0;entryY=0.5;entryDx=0;entryDy=0;exitX=1;exitY=1;exitDx=0;exitDy=0;" edge="1" parent="1" source="s4ftjdQKB5c-E1wRGTuP-109" target="s4ftjdQKB5c-E1wRGTuP-138">
          <mxGeometry width="50" height="50" relative="1" as="geometry">
            <mxPoint x="149" y="430" as="sourcePoint" />
            <mxPoint x="430" y="280" as="targetPoint" />
          </mxGeometry>
        </mxCell>
        <mxCell id="s4ftjdQKB5c-E1wRGTuP-146" value="S, U" style="text;html=1;strokeColor=none;fillColor=none;align=center;verticalAlign=middle;whiteSpace=wrap;rounded=0;" vertex="1" parent="1">
          <mxGeometry x="260" y="405" width="40" height="20" as="geometry" />
        </mxCell>
        <mxCell id="s4ftjdQKB5c-E1wRGTuP-147" value="22" style="text;html=1;strokeColor=none;fillColor=none;align=center;verticalAlign=middle;whiteSpace=wrap;rounded=0;" vertex="1" parent="1">
          <mxGeometry x="255" y="430" width="40" height="20" as="geometry" />
        </mxCell>
        <mxCell id="s4ftjdQKB5c-E1wRGTuP-148" value="S, U" style="text;html=1;strokeColor=none;fillColor=none;align=center;verticalAlign=middle;whiteSpace=wrap;rounded=0;rotation=30;" vertex="1" parent="1">
          <mxGeometry x="190" y="450" width="40" height="20" as="geometry" />
        </mxCell>
        <mxCell id="s4ftjdQKB5c-E1wRGTuP-149" value="16" style="text;html=1;strokeColor=none;fillColor=none;align=center;verticalAlign=middle;whiteSpace=wrap;rounded=0;rotation=30;" vertex="1" parent="1">
          <mxGeometry x="170" y="470" width="40" height="20" as="geometry" />
        </mxCell>
        <mxCell id="s4ftjdQKB5c-E1wRGTuP-151" value="B" style="ellipse;whiteSpace=wrap;html=1;aspect=fixed;" vertex="1" parent="1">
          <mxGeometry x="190" y="630" width="50" height="50" as="geometry" />
        </mxCell>
        <mxCell id="s4ftjdQKB5c-E1wRGTuP-152" value="H" style="ellipse;whiteSpace=wrap;html=1;aspect=fixed;" vertex="1" parent="1">
          <mxGeometry x="460" y="840" width="50" height="50" as="geometry" />
        </mxCell>
        <mxCell id="s4ftjdQKB5c-E1wRGTuP-153" value="I" style="ellipse;whiteSpace=wrap;html=1;aspect=fixed;" vertex="1" parent="1">
          <mxGeometry x="700" y="730" width="50" height="50" as="geometry" />
        </mxCell>
        <mxCell id="s4ftjdQKB5c-E1wRGTuP-154" value="G" style="ellipse;whiteSpace=wrap;html=1;aspect=fixed;" vertex="1" parent="1">
          <mxGeometry x="510" y="730" width="50" height="50" as="geometry" />
        </mxCell>
        <mxCell id="s4ftjdQKB5c-E1wRGTuP-155" value="F" style="ellipse;whiteSpace=wrap;html=1;aspect=fixed;" vertex="1" parent="1">
          <mxGeometry x="320" y="740" width="50" height="50" as="geometry" />
        </mxCell>
        <mxCell id="s4ftjdQKB5c-E1wRGTuP-156" value="E" style="ellipse;whiteSpace=wrap;html=1;aspect=fixed;" vertex="1" parent="1">
          <mxGeometry x="550" y="630" width="50" height="50" as="geometry" />
        </mxCell>
        <mxCell id="s4ftjdQKB5c-E1wRGTuP-157" value="D" style="ellipse;whiteSpace=wrap;html=1;aspect=fixed;" vertex="1" parent="1">
          <mxGeometry x="384" y="630" width="50" height="50" as="geometry" />
        </mxCell>
        <mxCell id="s4ftjdQKB5c-E1wRGTuP-158" value="&amp;nbsp;C" style="ellipse;whiteSpace=wrap;html=1;aspect=fixed;" vertex="1" parent="1">
          <mxGeometry x="185" y="830" width="50" height="50" as="geometry" />
        </mxCell>
        <mxCell id="s4ftjdQKB5c-E1wRGTuP-159" value="A" style="ellipse;whiteSpace=wrap;html=1;aspect=fixed;" vertex="1" parent="1">
          <mxGeometry x="50" y="730" width="50" height="50" as="geometry" />
        </mxCell>
        <mxCell id="s4ftjdQKB5c-E1wRGTuP-160" value="" style="endArrow=classic;html=1;entryX=0;entryY=1;entryDx=0;entryDy=0;" edge="1" parent="1" target="s4ftjdQKB5c-E1wRGTuP-151">
          <mxGeometry width="50" height="50" relative="1" as="geometry">
            <mxPoint x="101" y="741" as="sourcePoint" />
            <mxPoint x="160" y="700" as="targetPoint" />
          </mxGeometry>
        </mxCell>
        <mxCell id="s4ftjdQKB5c-E1wRGTuP-161" value="" style="endArrow=classic;html=1;entryX=0.004;entryY=0.292;entryDx=0;entryDy=0;exitX=1.024;exitY=0.708;exitDx=0;exitDy=0;exitPerimeter=0;entryPerimeter=0;" edge="1" parent="1" source="s4ftjdQKB5c-E1wRGTuP-159" target="s4ftjdQKB5c-E1wRGTuP-158">
          <mxGeometry width="50" height="50" relative="1" as="geometry">
            <mxPoint x="111" y="751" as="sourcePoint" />
            <mxPoint x="202.32233047033628" y="712.6776695296637" as="targetPoint" />
          </mxGeometry>
        </mxCell>
        <mxCell id="s4ftjdQKB5c-E1wRGTuP-162" value="" style="endArrow=classic;html=1;exitX=1;exitY=0.5;exitDx=0;exitDy=0;entryX=0;entryY=0.5;entryDx=0;entryDy=0;" edge="1" parent="1" source="s4ftjdQKB5c-E1wRGTuP-151" target="s4ftjdQKB5c-E1wRGTuP-157">
          <mxGeometry width="50" height="50" relative="1" as="geometry">
            <mxPoint x="270" y="700" as="sourcePoint" />
            <mxPoint x="320" y="650" as="targetPoint" />
          </mxGeometry>
        </mxCell>
        <mxCell id="s4ftjdQKB5c-E1wRGTuP-163" value="" style="endArrow=classic;html=1;exitX=0.948;exitY=0.292;exitDx=0;exitDy=0;exitPerimeter=0;entryX=0;entryY=1;entryDx=0;entryDy=0;" edge="1" parent="1" source="s4ftjdQKB5c-E1wRGTuP-158" target="s4ftjdQKB5c-E1wRGTuP-155">
          <mxGeometry width="50" height="50" relative="1" as="geometry">
            <mxPoint x="260" y="850" as="sourcePoint" />
            <mxPoint x="310" y="800" as="targetPoint" />
          </mxGeometry>
        </mxCell>
        <mxCell id="s4ftjdQKB5c-E1wRGTuP-164" value="" style="endArrow=classic;html=1;exitX=0.8;exitY=0.2;exitDx=0;exitDy=0;exitPerimeter=0;" edge="1" parent="1" source="s4ftjdQKB5c-E1wRGTuP-155" target="s4ftjdQKB5c-E1wRGTuP-157">
          <mxGeometry width="50" height="50" relative="1" as="geometry">
            <mxPoint x="360" y="740" as="sourcePoint" />
            <mxPoint x="400" y="680" as="targetPoint" />
          </mxGeometry>
        </mxCell>
        <mxCell id="s4ftjdQKB5c-E1wRGTuP-165" value="" style="endArrow=classic;html=1;exitX=1;exitY=0.5;exitDx=0;exitDy=0;entryX=0.056;entryY=0.644;entryDx=0;entryDy=0;entryPerimeter=0;" edge="1" parent="1" source="s4ftjdQKB5c-E1wRGTuP-155" target="s4ftjdQKB5c-E1wRGTuP-154">
          <mxGeometry width="50" height="50" relative="1" as="geometry">
            <mxPoint x="400" y="780" as="sourcePoint" />
            <mxPoint x="450" y="730" as="targetPoint" />
          </mxGeometry>
        </mxCell>
        <mxCell id="s4ftjdQKB5c-E1wRGTuP-166" value="" style="endArrow=classic;html=1;exitX=1;exitY=0.5;exitDx=0;exitDy=0;entryX=0;entryY=0.5;entryDx=0;entryDy=0;" edge="1" parent="1" source="s4ftjdQKB5c-E1wRGTuP-157" target="s4ftjdQKB5c-E1wRGTuP-156">
          <mxGeometry width="50" height="50" relative="1" as="geometry">
            <mxPoint x="470" y="680" as="sourcePoint" />
            <mxPoint x="520" y="630" as="targetPoint" />
          </mxGeometry>
        </mxCell>
        <mxCell id="s4ftjdQKB5c-E1wRGTuP-167" value="" style="endArrow=classic;html=1;exitX=1;exitY=0.5;exitDx=0;exitDy=0;entryX=0;entryY=0.5;entryDx=0;entryDy=0;" edge="1" parent="1" source="s4ftjdQKB5c-E1wRGTuP-154" target="s4ftjdQKB5c-E1wRGTuP-153">
          <mxGeometry width="50" height="50" relative="1" as="geometry">
            <mxPoint x="560" y="760" as="sourcePoint" />
            <mxPoint x="610" y="710" as="targetPoint" />
          </mxGeometry>
        </mxCell>
        <mxCell id="s4ftjdQKB5c-E1wRGTuP-168" value="" style="endArrow=classic;html=1;exitX=1;exitY=1;exitDx=0;exitDy=0;entryX=0.04;entryY=0.316;entryDx=0;entryDy=0;entryPerimeter=0;" edge="1" parent="1" source="s4ftjdQKB5c-E1wRGTuP-155" target="s4ftjdQKB5c-E1wRGTuP-152">
          <mxGeometry width="50" height="50" relative="1" as="geometry">
            <mxPoint x="390" y="840" as="sourcePoint" />
            <mxPoint x="440" y="790" as="targetPoint" />
          </mxGeometry>
        </mxCell>
        <mxCell id="s4ftjdQKB5c-E1wRGTuP-169" value="S, I, U" style="text;html=1;strokeColor=none;fillColor=none;align=center;verticalAlign=middle;whiteSpace=wrap;rounded=0;rotation=-30;" vertex="1" parent="1">
          <mxGeometry x="120" y="680" width="40" height="20" as="geometry" />
        </mxCell>
        <mxCell id="s4ftjdQKB5c-E1wRGTuP-170" value="10" style="text;html=1;strokeColor=none;fillColor=none;align=center;verticalAlign=middle;whiteSpace=wrap;rounded=0;rotation=-30;" vertex="1" parent="1">
          <mxGeometry x="140" y="710" width="40" height="20" as="geometry" />
        </mxCell>
        <mxCell id="s4ftjdQKB5c-E1wRGTuP-171" value="20" style="text;html=1;strokeColor=none;fillColor=none;align=center;verticalAlign=middle;whiteSpace=wrap;rounded=0;" vertex="1" parent="1">
          <mxGeometry x="470" y="660" width="40" height="20" as="geometry" />
        </mxCell>
        <mxCell id="s4ftjdQKB5c-E1wRGTuP-172" value="S, U" style="text;html=1;strokeColor=none;fillColor=none;align=center;verticalAlign=middle;whiteSpace=wrap;rounded=0;" vertex="1" parent="1">
          <mxGeometry x="470" y="630" width="40" height="20" as="geometry" />
        </mxCell>
        <mxCell id="s4ftjdQKB5c-E1wRGTuP-173" value="33" style="text;html=1;strokeColor=none;fillColor=none;align=center;verticalAlign=middle;whiteSpace=wrap;rounded=0;rotation=-30;" vertex="1" parent="1">
          <mxGeometry x="265" y="820" width="40" height="20" as="geometry" />
        </mxCell>
        <mxCell id="s4ftjdQKB5c-E1wRGTuP-174" value="S, U" style="text;html=1;strokeColor=none;fillColor=none;align=center;verticalAlign=middle;whiteSpace=wrap;rounded=0;rotation=-30;" vertex="1" parent="1">
          <mxGeometry x="255" y="800" width="40" height="20" as="geometry" />
        </mxCell>
        <mxCell id="s4ftjdQKB5c-E1wRGTuP-175" value="16" style="text;html=1;strokeColor=none;fillColor=none;align=center;verticalAlign=middle;whiteSpace=wrap;rounded=0;" vertex="1" parent="1">
          <mxGeometry x="285" y="660" width="40" height="20" as="geometry" />
        </mxCell>
        <mxCell id="s4ftjdQKB5c-E1wRGTuP-176" value="S, I, U" style="text;html=1;strokeColor=none;fillColor=none;align=center;verticalAlign=middle;whiteSpace=wrap;rounded=0;" vertex="1" parent="1">
          <mxGeometry x="285" y="630" width="40" height="20" as="geometry" />
        </mxCell>
        <mxCell id="s4ftjdQKB5c-E1wRGTuP-177" value="S, I, U" style="text;html=1;strokeColor=none;fillColor=none;align=center;verticalAlign=middle;whiteSpace=wrap;rounded=0;rotation=45;" vertex="1" parent="1">
          <mxGeometry x="130" y="785" width="40" height="20" as="geometry" />
        </mxCell>
        <mxCell id="s4ftjdQKB5c-E1wRGTuP-178" value="12" style="text;html=1;strokeColor=none;fillColor=none;align=center;verticalAlign=middle;whiteSpace=wrap;rounded=0;rotation=45;" vertex="1" parent="1">
          <mxGeometry x="110" y="800" width="40" height="20" as="geometry" />
        </mxCell>
        <mxCell id="s4ftjdQKB5c-E1wRGTuP-180" value="I" style="text;html=1;strokeColor=none;fillColor=none;align=center;verticalAlign=middle;whiteSpace=wrap;rounded=0;" vertex="1" parent="1">
          <mxGeometry x="610" y="730" width="40" height="20" as="geometry" />
        </mxCell>
        <mxCell id="s4ftjdQKB5c-E1wRGTuP-181" value="S, I" style="text;html=1;strokeColor=none;fillColor=none;align=center;verticalAlign=middle;whiteSpace=wrap;rounded=0;rotation=30;" vertex="1" parent="1">
          <mxGeometry x="410" y="800" width="40" height="20" as="geometry" />
        </mxCell>
        <mxCell id="s4ftjdQKB5c-E1wRGTuP-183" value="37" style="text;html=1;strokeColor=none;fillColor=none;align=center;verticalAlign=middle;whiteSpace=wrap;rounded=0;" vertex="1" parent="1">
          <mxGeometry x="610" y="755" width="40" height="20" as="geometry" />
        </mxCell>
        <mxCell id="s4ftjdQKB5c-E1wRGTuP-184" value="30" style="text;html=1;strokeColor=none;fillColor=none;align=center;verticalAlign=middle;whiteSpace=wrap;rounded=0;" vertex="1" parent="1">
          <mxGeometry x="384" y="820" width="40" height="20" as="geometry" />
        </mxCell>
        <mxCell id="s4ftjdQKB5c-E1wRGTuP-186" value="S, I, U" style="text;html=1;strokeColor=none;fillColor=none;align=center;verticalAlign=middle;whiteSpace=wrap;rounded=0;" vertex="1" parent="1">
          <mxGeometry x="430" y="745" width="40" height="20" as="geometry" />
        </mxCell>
        <mxCell id="s4ftjdQKB5c-E1wRGTuP-189" value="35" style="text;html=1;strokeColor=none;fillColor=none;align=center;verticalAlign=middle;whiteSpace=wrap;rounded=0;" vertex="1" parent="1">
          <mxGeometry x="430" y="765" width="40" height="20" as="geometry" />
        </mxCell>
        <mxCell id="s4ftjdQKB5c-E1wRGTuP-190" value="" style="endArrow=none;html=1;" edge="1" parent="1">
          <mxGeometry width="50" height="50" relative="1" as="geometry">
            <mxPoint x="280" y="680" as="sourcePoint" />
            <mxPoint x="330" y="630" as="targetPoint" />
          </mxGeometry>
        </mxCell>
        <mxCell id="s4ftjdQKB5c-E1wRGTuP-191" value="" style="endArrow=none;html=1;" edge="1" parent="1">
          <mxGeometry width="50" height="50" relative="1" as="geometry">
            <mxPoint x="280" y="630" as="sourcePoint" />
            <mxPoint x="330" y="680" as="targetPoint" />
          </mxGeometry>
        </mxCell>
        <mxCell id="s4ftjdQKB5c-E1wRGTuP-192" value="" style="endArrow=classic;html=1;exitX=0.768;exitY=1.06;exitDx=0;exitDy=0;exitPerimeter=0;" edge="1" parent="1" source="s4ftjdQKB5c-E1wRGTuP-151">
          <mxGeometry width="50" height="50" relative="1" as="geometry">
            <mxPoint x="230" y="730" as="sourcePoint" />
            <mxPoint x="320" y="760" as="targetPoint" />
          </mxGeometry>
        </mxCell>
        <mxCell id="s4ftjdQKB5c-E1wRGTuP-193" value="S, I" style="text;html=1;strokeColor=none;fillColor=none;align=center;verticalAlign=middle;whiteSpace=wrap;rounded=0;rotation=45;" vertex="1" parent="1">
          <mxGeometry x="260" y="700" width="40" height="20" as="geometry" />
        </mxCell>
        <mxCell id="s4ftjdQKB5c-E1wRGTuP-195" value="25" style="text;html=1;strokeColor=none;fillColor=none;align=center;verticalAlign=middle;whiteSpace=wrap;rounded=0;rotation=45;" vertex="1" parent="1">
          <mxGeometry x="245" y="720" width="40" height="20" as="geometry" />
        </mxCell>
        <mxCell id="s4ftjdQKB5c-E1wRGTuP-196" value="" style="endArrow=none;html=1;entryX=1;entryY=0;entryDx=0;entryDy=0;exitX=0;exitY=1;exitDx=0;exitDy=0;" edge="1" parent="1" source="s4ftjdQKB5c-E1wRGTuP-195" target="s4ftjdQKB5c-E1wRGTuP-193">
          <mxGeometry width="50" height="50" relative="1" as="geometry">
            <mxPoint x="240" y="730" as="sourcePoint" />
            <mxPoint x="290" y="700" as="targetPoint" />
          </mxGeometry>
        </mxCell>
        <mxCell id="s4ftjdQKB5c-E1wRGTuP-197" value="" style="endArrow=none;html=1;exitX=1;exitY=1;exitDx=0;exitDy=0;entryX=0;entryY=0;entryDx=0;entryDy=0;" edge="1" parent="1" source="s4ftjdQKB5c-E1wRGTuP-195" target="s4ftjdQKB5c-E1wRGTuP-193">
          <mxGeometry width="50" height="50" relative="1" as="geometry">
            <mxPoint x="250" y="740" as="sourcePoint" />
            <mxPoint x="300" y="690" as="targetPoint" />
          </mxGeometry>
        </mxCell>
        <mxCell id="s4ftjdQKB5c-E1wRGTuP-198" value="48" style="text;html=1;strokeColor=none;fillColor=none;align=center;verticalAlign=middle;whiteSpace=wrap;rounded=0;rotation=-60;" vertex="1" parent="1">
          <mxGeometry x="374" y="710" width="40" height="20" as="geometry" />
        </mxCell>
        <mxCell id="s4ftjdQKB5c-E1wRGTuP-199" value="U" style="text;html=1;strokeColor=none;fillColor=none;align=center;verticalAlign=middle;whiteSpace=wrap;rounded=0;rotation=-60;" vertex="1" parent="1">
          <mxGeometry x="354" y="700" width="40" height="20" as="geometry" />
        </mxCell>
        <mxCell id="s4ftjdQKB5c-E1wRGTuP-201" value="B" style="ellipse;whiteSpace=wrap;html=1;aspect=fixed;" vertex="1" parent="1">
          <mxGeometry x="190" y="970" width="50" height="50" as="geometry" />
        </mxCell>
        <mxCell id="s4ftjdQKB5c-E1wRGTuP-202" value="H" style="ellipse;whiteSpace=wrap;html=1;aspect=fixed;" vertex="1" parent="1">
          <mxGeometry x="460" y="1180" width="50" height="50" as="geometry" />
        </mxCell>
        <mxCell id="s4ftjdQKB5c-E1wRGTuP-203" value="I" style="ellipse;whiteSpace=wrap;html=1;aspect=fixed;" vertex="1" parent="1">
          <mxGeometry x="700" y="1070" width="50" height="50" as="geometry" />
        </mxCell>
        <mxCell id="s4ftjdQKB5c-E1wRGTuP-204" value="G" style="ellipse;whiteSpace=wrap;html=1;aspect=fixed;" vertex="1" parent="1">
          <mxGeometry x="510" y="1070" width="50" height="50" as="geometry" />
        </mxCell>
        <mxCell id="s4ftjdQKB5c-E1wRGTuP-205" value="F" style="ellipse;whiteSpace=wrap;html=1;aspect=fixed;" vertex="1" parent="1">
          <mxGeometry x="320" y="1080" width="50" height="50" as="geometry" />
        </mxCell>
        <mxCell id="s4ftjdQKB5c-E1wRGTuP-206" value="E" style="ellipse;whiteSpace=wrap;html=1;aspect=fixed;" vertex="1" parent="1">
          <mxGeometry x="550" y="970" width="50" height="50" as="geometry" />
        </mxCell>
        <mxCell id="s4ftjdQKB5c-E1wRGTuP-207" value="D" style="ellipse;whiteSpace=wrap;html=1;aspect=fixed;" vertex="1" parent="1">
          <mxGeometry x="384" y="970" width="50" height="50" as="geometry" />
        </mxCell>
        <mxCell id="s4ftjdQKB5c-E1wRGTuP-208" value="&amp;nbsp;C" style="ellipse;whiteSpace=wrap;html=1;aspect=fixed;" vertex="1" parent="1">
          <mxGeometry x="185" y="1170" width="50" height="50" as="geometry" />
        </mxCell>
        <mxCell id="s4ftjdQKB5c-E1wRGTuP-209" value="A" style="ellipse;whiteSpace=wrap;html=1;aspect=fixed;" vertex="1" parent="1">
          <mxGeometry x="50" y="1070" width="50" height="50" as="geometry" />
        </mxCell>
        <mxCell id="s4ftjdQKB5c-E1wRGTuP-210" value="" style="endArrow=classic;html=1;entryX=0;entryY=1;entryDx=0;entryDy=0;" edge="1" parent="1" target="s4ftjdQKB5c-E1wRGTuP-201">
          <mxGeometry width="50" height="50" relative="1" as="geometry">
            <mxPoint x="101" y="1081" as="sourcePoint" />
            <mxPoint x="160" y="1040" as="targetPoint" />
          </mxGeometry>
        </mxCell>
        <mxCell id="s4ftjdQKB5c-E1wRGTuP-211" value="" style="endArrow=classic;html=1;entryX=0.004;entryY=0.292;entryDx=0;entryDy=0;exitX=1.024;exitY=0.708;exitDx=0;exitDy=0;exitPerimeter=0;entryPerimeter=0;" edge="1" parent="1" source="s4ftjdQKB5c-E1wRGTuP-209" target="s4ftjdQKB5c-E1wRGTuP-208">
          <mxGeometry width="50" height="50" relative="1" as="geometry">
            <mxPoint x="111" y="1091" as="sourcePoint" />
            <mxPoint x="202.32233047033628" y="1052.6776695296637" as="targetPoint" />
          </mxGeometry>
        </mxCell>
        <mxCell id="s4ftjdQKB5c-E1wRGTuP-213" value="" style="endArrow=classic;html=1;exitX=0.948;exitY=0.292;exitDx=0;exitDy=0;exitPerimeter=0;entryX=0;entryY=1;entryDx=0;entryDy=0;" edge="1" parent="1" source="s4ftjdQKB5c-E1wRGTuP-208" target="s4ftjdQKB5c-E1wRGTuP-205">
          <mxGeometry width="50" height="50" relative="1" as="geometry">
            <mxPoint x="260" y="1190" as="sourcePoint" />
            <mxPoint x="310" y="1140" as="targetPoint" />
          </mxGeometry>
        </mxCell>
        <mxCell id="s4ftjdQKB5c-E1wRGTuP-214" value="" style="endArrow=classic;html=1;exitX=0.8;exitY=0.2;exitDx=0;exitDy=0;exitPerimeter=0;" edge="1" parent="1" source="s4ftjdQKB5c-E1wRGTuP-205" target="s4ftjdQKB5c-E1wRGTuP-207">
          <mxGeometry width="50" height="50" relative="1" as="geometry">
            <mxPoint x="360" y="1080" as="sourcePoint" />
            <mxPoint x="400" y="1020" as="targetPoint" />
          </mxGeometry>
        </mxCell>
        <mxCell id="s4ftjdQKB5c-E1wRGTuP-215" value="" style="endArrow=classic;html=1;exitX=1;exitY=0.5;exitDx=0;exitDy=0;entryX=0.056;entryY=0.644;entryDx=0;entryDy=0;entryPerimeter=0;" edge="1" parent="1" source="s4ftjdQKB5c-E1wRGTuP-205" target="s4ftjdQKB5c-E1wRGTuP-204">
          <mxGeometry width="50" height="50" relative="1" as="geometry">
            <mxPoint x="400" y="1120" as="sourcePoint" />
            <mxPoint x="450" y="1070" as="targetPoint" />
          </mxGeometry>
        </mxCell>
        <mxCell id="s4ftjdQKB5c-E1wRGTuP-219" value="S, I, U" style="text;html=1;strokeColor=none;fillColor=none;align=center;verticalAlign=middle;whiteSpace=wrap;rounded=0;rotation=-30;" vertex="1" parent="1">
          <mxGeometry x="120" y="1020" width="40" height="20" as="geometry" />
        </mxCell>
        <mxCell id="s4ftjdQKB5c-E1wRGTuP-220" value="10" style="text;html=1;strokeColor=none;fillColor=none;align=center;verticalAlign=middle;whiteSpace=wrap;rounded=0;rotation=-30;" vertex="1" parent="1">
          <mxGeometry x="140" y="1050" width="40" height="20" as="geometry" />
        </mxCell>
        <mxCell id="s4ftjdQKB5c-E1wRGTuP-223" value="33" style="text;html=1;strokeColor=none;fillColor=none;align=center;verticalAlign=middle;whiteSpace=wrap;rounded=0;rotation=-30;" vertex="1" parent="1">
          <mxGeometry x="265" y="1160" width="40" height="20" as="geometry" />
        </mxCell>
        <mxCell id="s4ftjdQKB5c-E1wRGTuP-224" value="S, U" style="text;html=1;strokeColor=none;fillColor=none;align=center;verticalAlign=middle;whiteSpace=wrap;rounded=0;rotation=-30;" vertex="1" parent="1">
          <mxGeometry x="255" y="1140" width="40" height="20" as="geometry" />
        </mxCell>
        <mxCell id="s4ftjdQKB5c-E1wRGTuP-227" value="S, I, U" style="text;html=1;strokeColor=none;fillColor=none;align=center;verticalAlign=middle;whiteSpace=wrap;rounded=0;rotation=45;" vertex="1" parent="1">
          <mxGeometry x="130" y="1125" width="40" height="20" as="geometry" />
        </mxCell>
        <mxCell id="s4ftjdQKB5c-E1wRGTuP-228" value="12" style="text;html=1;strokeColor=none;fillColor=none;align=center;verticalAlign=middle;whiteSpace=wrap;rounded=0;rotation=45;" vertex="1" parent="1">
          <mxGeometry x="110" y="1140" width="40" height="20" as="geometry" />
        </mxCell>
        <mxCell id="s4ftjdQKB5c-E1wRGTuP-233" value="S,&amp;nbsp; U" style="text;html=1;strokeColor=none;fillColor=none;align=center;verticalAlign=middle;whiteSpace=wrap;rounded=0;" vertex="1" parent="1">
          <mxGeometry x="430" y="1085" width="40" height="20" as="geometry" />
        </mxCell>
        <mxCell id="s4ftjdQKB5c-E1wRGTuP-234" value="35" style="text;html=1;strokeColor=none;fillColor=none;align=center;verticalAlign=middle;whiteSpace=wrap;rounded=0;" vertex="1" parent="1">
          <mxGeometry x="430" y="1105" width="40" height="20" as="geometry" />
        </mxCell>
        <mxCell id="s4ftjdQKB5c-E1wRGTuP-242" value="48" style="text;html=1;strokeColor=none;fillColor=none;align=center;verticalAlign=middle;whiteSpace=wrap;rounded=0;rotation=-60;" vertex="1" parent="1">
          <mxGeometry x="374" y="1050" width="40" height="20" as="geometry" />
        </mxCell>
        <mxCell id="s4ftjdQKB5c-E1wRGTuP-243" value="U" style="text;html=1;strokeColor=none;fillColor=none;align=center;verticalAlign=middle;whiteSpace=wrap;rounded=0;rotation=-60;" vertex="1" parent="1">
          <mxGeometry x="354" y="1040" width="40" height="20" as="geometry" />
        </mxCell>
      </root>
    </mxGraphModel>
  </diagram>
</mxfile>
